<svg xmlns="http://www.w3.org/2000/svg" viewBox="0 0 100 100" width="100" height="100">
  <!-- خلفية دائرية -->
  <circle cx="50" cy="50" r="48" fill="#0284c7" />

  <!-- ايقونة ساعة -->
  <circle cx="50" cy="50" r="28" fill="none" stroke="white" stroke-width="5" />

  <!-- عقرب الساعات -->
  <line x1="50" y1="50" x2="50" y2="32" stroke="white" stroke-width="5" stroke-linecap="round" />

  <!-- عقرب الدقائق -->
  <line x1="50" y1="50" x2="64" y2="54" stroke="white" stroke-width="4" stroke-linecap="round" />

  <!-- نقطة المركز -->
  <circle cx="50" cy="50" r="3" fill="white" />

  <!-- بصمة صغيرة أسفل اليمين -->
  <g transform="translate(62,62) scale(0.35)">
    <path d="M25 5 C14 5 5 14 5 25 C5 36 14 45 25 45" fill="none" stroke="white" stroke-width="4" stroke-linecap="round"/>
    <path d="M25 12 C18 12 12 18 12 25 C12 32 18 38 25 38" fill="none" stroke="white" stroke-width="4" stroke-linecap="round"/>
    <path d="M25 19 C22 19 19 22 19 25 C19 28 22 31 25 31" fill="none" stroke="white" stroke-width="4" stroke-linecap="round"/>
  </g>
</svg>
